<svg xmlns="http://www.w3.org/2000/svg" viewBox="0 0 120 120" role="img" aria-labelledby="logoTitle">
  <title id="logoTitle">Eshop Toys Logo</title>
  <defs>
    <linearGradient id="logoGradient" x1="0%" y1="0%" x2="100%" y2="100%">
      <stop offset="0%" stop-color="#FF6B9D" />
      <stop offset="100%" stop-color="#FF8E53" />
    </linearGradient>
  </defs>
  <rect width="120" height="120" rx="28" fill="#fff" />
  <circle cx="35" cy="35" r="22" fill="url(#logoGradient)" />
  <path d="M27 28c4-3 12-2 15 3s2 15-2 18" fill="none" stroke="#fff" stroke-width="5" stroke-linecap="round" />
  <path d="M44 25l12 10" stroke="#fff" stroke-width="5" stroke-linecap="round" />
  <circle cx="37" cy="44" r="4" fill="#fff" />
  <circle cx="45" cy="40" r="4" fill="#fff" />
  <path d="M58 88H28c-5 0-9-4-9-9V56c0-5 4-9 9-9h60c5 0 9 4 9 9v14" fill="#FFDEE8" />
  <path d="M30 80h58v9c0 5-4 9-9 9H39c-5 0-9-4-9-9v-9Z" fill="#FFC9E1" />
  <text x="63" y="87" font-family="Fredoka, sans-serif" font-size="30" font-weight="700" fill="#333" text-anchor="middle">T</text>
</svg>
